<?xml version="1.0" encoding="UTF-8"?>
<!DOCTYPE svg PUBLIC "-//W3C//DTD SVG 1.1//EN" "http://www.w3.org/Graphics/SVG/1.1/DTD/svg11.dtd">
<!-- Creator: CorelDRAW X7 -->
<svg xmlns="http://www.w3.org/2000/svg" xml:space="preserve" width="13.9563mm" height="13.9563mm" version="1.1" style="shape-rendering:geometricPrecision; text-rendering:geometricPrecision; image-rendering:optimizeQuality; fill-rule:evenodd; clip-rule:evenodd"
viewBox="0 0 123 123"
 xmlns:xlink="http://www.w3.org/1999/xlink">
 <defs>
  <style type="text/css">
   <![CDATA[
    .str0 {stroke:#FEFEFE;stroke-width:4.68175}
    .fil0 {fill:none}
    .fil1 {fill:#FEFEFE}
   ]]>
  </style>
 </defs>
 <g id="Capa_x0020_1">
  <metadata id="CorelCorpID_0Corel-Layer"/>
  <path class="fil0 str0" d="M62 121l0 0c-33,0 -60,-26 -60,-59l0 0c0,-33 27,-60 60,-60l0 0c33,0 59,27 59,60l0 0c0,33 -26,59 -59,59z"/>
  <path class="fil1" d="M53 98l14 0 0 -37 10 0 1 -12 -11 0c0,0 0,-4 0,-7 0,-2 1,-4 3,-4 3,0 8,0 8,0l0 -12c0,0 -8,0 -10,0 -10,0 -15,5 -15,14 0,8 0,9 0,9l-8 0 0 13 8 0 0 36z"/>
 </g>
</svg>
