<?xml version="1.0" encoding="UTF-8"?>
<!DOCTYPE svg PUBLIC "-//W3C//DTD SVG 1.1//EN" "http://www.w3.org/Graphics/SVG/1.1/DTD/svg11.dtd">
<!-- Creator: CorelDRAW X7 -->
<svg xmlns="http://www.w3.org/2000/svg" xml:space="preserve" width="13.9563mm" height="13.9563mm" version="1.1" style="shape-rendering:geometricPrecision; text-rendering:geometricPrecision; image-rendering:optimizeQuality; fill-rule:evenodd; clip-rule:evenodd"
viewBox="0 0 99 99"
 xmlns:xlink="http://www.w3.org/1999/xlink">
 <defs>
  <style type="text/css">
   <![CDATA[
    .str0 {stroke:#FEFEFE;stroke-width:3.74743}
    .fil0 {fill:none}
    .fil1 {fill:#FEFEFE}
   ]]>
  </style>
 </defs>
 <g id="Capa_x0020_1">
  <metadata id="CorelCorpID_0Corel-Layer"/>
  <path class="fil0 str0" d="M49 97l0 0c-26,0 -47,-21 -47,-48l0 0c0,-26 21,-47 47,-47l0 0c27,0 48,21 48,47l0 0c0,27 -21,48 -48,48z"/>
  <path class="fil1" d="M49 23c-7,0 -8,0 -10,1 -3,0 -5,0 -7,1 -1,0 -3,1 -4,3 -2,1 -3,3 -3,4 -1,2 -1,4 -1,7 -1,2 -1,3 -1,10 0,8 0,8 1,11 0,3 0,5 1,7 0,1 1,3 3,4 1,2 3,2 4,3 2,1 4,1 7,1 2,0 3,0 10,0 8,0 8,0 11,0 3,0 5,0 7,-1 1,-1 3,-1 4,-3 2,-1 2,-3 3,-4 1,-2 1,-4 1,-7 0,-3 0,-3 0,-11 0,-7 0,-8 0,-10 0,-3 0,-5 -1,-7 -1,-1 -1,-3 -3,-4 -1,-2 -3,-3 -4,-3 -2,-1 -4,-1 -7,-1 -3,-1 -3,-1 -11,-1zm0 5c7,0 8,0 11,0 3,0 4,1 5,1 1,1 2,1 3,2 1,1 1,2 2,3 0,1 1,2 1,5 0,3 0,3 0,10 0,7 0,8 0,11 0,3 -1,4 -1,5 -1,1 -1,2 -2,3 -1,1 -2,1 -3,2 -1,0 -2,1 -5,1 -3,0 -4,0 -11,0 -7,0 -7,0 -10,0 -3,0 -4,-1 -5,-1 -1,-1 -2,-1 -3,-2 -1,-1 -1,-2 -2,-3 0,-1 -1,-2 -1,-5 0,-3 0,-4 0,-11 0,-7 0,-7 0,-10 0,-3 1,-4 1,-5 1,-1 1,-2 2,-3 1,-1 2,-1 3,-2 1,0 2,-1 5,-1 3,0 3,0 10,0z"/>
  <path class="fil1" d="M49 58c-4,0 -8,-4 -8,-9 0,-4 4,-8 8,-8 5,0 9,4 9,8 0,5 -4,9 -9,9zm0 -22c-7,0 -13,6 -13,13 0,8 6,14 13,14 8,0 14,-6 14,-14 0,-7 -6,-13 -14,-13z"/>
  <path class="fil1" d="M66 36c0,1 -1,3 -3,3 -1,0 -3,-2 -3,-3 0,-2 2,-4 3,-4 2,0 3,2 3,4z"/>
 </g>
</svg>
