<svg id="SvgjsSvg1025" width="288" height="288" xmlns="http://www.w3.org/2000/svg" version="1.1" xmlns:xlink="http://www.w3.org/1999/xlink" xmlns:svgjs="http://svgjs.com/svgjs"><defs id="SvgjsDefs1026"></defs><g id="SvgjsG1027"><svg xmlns="http://www.w3.org/2000/svg" width="288" height="288" fill-rule="evenodd" clip-rule="evenodd" image-rendering="optimizeQuality" shape-rendering="geometricPrecision" text-rendering="geometricPrecision" viewBox="0 0 164 164"><path fill="none" stroke="#a8a8a8" stroke-width="6.201" d="M82 160l0 0c-44,0 -79,-35 -79,-78l0 0c0,-44 35,-79 79,-79l0 0c43,0 78,35 78,79l0 0c0,43 -35,78 -78,78z" class="colorStrokefefefe svgStroke"></path><path fill="#a8a8a8" d="M142 51c-1,-5 -6,-9 -11,-11 -10,-3 -49,-3 -49,-3 0,0 -40,0 -49,3 -6,2 -10,6 -12,11 -2,10 -2,31 -2,31 0,0 0,20 2,30 2,6 6,10 12,11 9,3 49,3 49,3 0,0 39,0 49,-3 5,-1 10,-5 11,-11 3,-10 3,-30 3,-30 0,0 0,-21 -3,-31zm-73 50l0 -38 33 19 -33 19z" class="colorfefefe svgShape"></path></svg></g></svg>