<?xml version="1.0" encoding="UTF-8"?>
<!DOCTYPE svg PUBLIC "-//W3C//DTD SVG 1.1//EN" "http://www.w3.org/Graphics/SVG/1.1/DTD/svg11.dtd">
<!-- Creator: CorelDRAW X7 -->
<svg xmlns="http://www.w3.org/2000/svg" xml:space="preserve" width="13.9563mm" height="13.9563mm" version="1.1" style="shape-rendering:geometricPrecision; text-rendering:geometricPrecision; image-rendering:optimizeQuality; fill-rule:evenodd; clip-rule:evenodd"
viewBox="0 0 83 83"
 xmlns:xlink="http://www.w3.org/1999/xlink">
 <defs>
  <style type="text/css">
   <![CDATA[
    .str0 {stroke:#FEFEFE;stroke-width:3.15516}
    .fil0 {fill:none}
    .fil1 {fill:#FEFEFE}
   ]]>
  </style>
 </defs>
 <g id="Capa_x0020_1">
  <metadata id="CorelCorpID_0Corel-Layer"/>
  <path class="fil0 str0" d="M42 82l0 0c-22,0 -40,-18 -40,-40l0 0c0,-22 18,-40 40,-40l0 0c22,0 40,18 40,40l0 0c0,22 -18,40 -40,40z"/>
  <path class="fil1" d="M20 55c4,2 9,4 14,4 16,0 25,-14 25,-26 1,-1 3,-3 4,-5 -2,1 -3,2 -5,2 2,-1 3,-3 4,-5 -2,1 -4,2 -6,2 -1,-2 -4,-3 -6,-3 -6,0 -10,6 -9,11 -7,0 -13,-4 -18,-9 -2,4 -1,9 3,12 -1,0 -3,-1 -4,-2 0,5 3,8 7,9 -1,0 -3,1 -4,0 1,4 4,6 8,6 -3,3 -8,5 -13,4z"/>
 </g>
</svg>
