<?xml version="1.0" encoding="UTF-8"?>
<!DOCTYPE svg PUBLIC "-//W3C//DTD SVG 1.1//EN" "http://www.w3.org/Graphics/SVG/1.1/DTD/svg11.dtd">
<!-- Creator: CorelDRAW X7 -->
<svg xmlns="http://www.w3.org/2000/svg" xml:space="preserve" width="13.9563mm" height="13.9563mm" version="1.1" style="shape-rendering:geometricPrecision; text-rendering:geometricPrecision; image-rendering:optimizeQuality; fill-rule:evenodd; clip-rule:evenodd"
viewBox="0 0 164 164"
 xmlns:xlink="http://www.w3.org/1999/xlink">
 <defs>
  <style type="text/css">
   <![CDATA[
    .str0 {stroke:#FEFEFE;stroke-width:6.20082}
    .fil0 {fill:none}
    .fil1 {fill:#FEFEFE}
   ]]>
  </style>
 </defs>
 <g id="Capa_x0020_1">
  <metadata id="CorelCorpID_0Corel-Layer"/>
  <path class="fil0 str0" d="M82 160l0 0c-44,0 -79,-35 -79,-78l0 0c0,-44 35,-79 79,-79l0 0c43,0 78,35 78,79l0 0c0,43 -35,78 -78,78z"/>
  <path class="fil1" d="M142 51c-1,-5 -6,-9 -11,-11 -10,-3 -49,-3 -49,-3 0,0 -40,0 -49,3 -6,2 -10,6 -12,11 -2,10 -2,31 -2,31 0,0 0,20 2,30 2,6 6,10 12,11 9,3 49,3 49,3 0,0 39,0 49,-3 5,-1 10,-5 11,-11 3,-10 3,-30 3,-30 0,0 0,-21 -3,-31zm-73 50l0 -38 33 19 -33 19z"/>
 </g>
</svg>
