<svg id="SvgjsSvg1001" width="288" height="288" xmlns="http://www.w3.org/2000/svg" version="1.1" xmlns:xlink="http://www.w3.org/1999/xlink" xmlns:svgjs="http://svgjs.com/svgjs"><defs id="SvgjsDefs1002"></defs><g id="SvgjsG1008" transform="matrix(1,0,0,1,0,0)"><svg xmlns="http://www.w3.org/2000/svg" width="288" height="288" fill-rule="evenodd" clip-rule="evenodd" image-rendering="optimizeQuality" shape-rendering="geometricPrecision" text-rendering="geometricPrecision" viewBox="0 0 123 123"><path fill="none" stroke="#a8a8a8" stroke-width="4.682" d="M62 121l0 0c-33,0 -60,-26 -60,-59l0 0c0,-33 27,-60 60,-60l0 0c33,0 59,27 59,60l0 0c0,33 -26,59 -59,59z" class="colorStrokefefefe svgStroke"></path><path fill="#a8a8a8" d="M53 98l14 0 0 -37 10 0 1 -12 -11 0c0,0 0,-4 0,-7 0,-2 1,-4 3,-4 3,0 8,0 8,0l0 -12c0,0 -8,0 -10,0 -10,0 -15,5 -15,14 0,8 0,9 0,9l-8 0 0 13 8 0 0 36z" class="colorfefefe svgShape"></path></svg></g></svg>