<svg id="SvgjsSvg1019" width="288" height="288" xmlns="http://www.w3.org/2000/svg" version="1.1" xmlns:xlink="http://www.w3.org/1999/xlink" xmlns:svgjs="http://svgjs.com/svgjs"><defs id="SvgjsDefs1020"></defs><g id="SvgjsG1021"><svg xmlns="http://www.w3.org/2000/svg" width="288" height="288" fill-rule="evenodd" clip-rule="evenodd" image-rendering="optimizeQuality" shape-rendering="geometricPrecision" text-rendering="geometricPrecision" viewBox="0 0 83 83"><path fill="none" stroke="#a8a8a8" stroke-width="3.155" d="M42 82l0 0c-22,0 -40,-18 -40,-40l0 0c0,-22 18,-40 40,-40l0 0c22,0 40,18 40,40l0 0c0,22 -18,40 -40,40z" class="colorStrokefefefe svgStroke"></path><path fill="#a8a8a8" d="M20 55c4,2 9,4 14,4 16,0 25,-14 25,-26 1,-1 3,-3 4,-5 -2,1 -3,2 -5,2 2,-1 3,-3 4,-5 -2,1 -4,2 -6,2 -1,-2 -4,-3 -6,-3 -6,0 -10,6 -9,11 -7,0 -13,-4 -18,-9 -2,4 -1,9 3,12 -1,0 -3,-1 -4,-2 0,5 3,8 7,9 -1,0 -3,1 -4,0 1,4 4,6 8,6 -3,3 -8,5 -13,4z" class="colorfefefe svgShape"></path></svg></g></svg>